<svg width="256" height="256" viewBox="0 0 256 256" fill="none" xmlns="http://www.w3.org/2000/svg">
<path d="M74.6667 64C77.4956 64 80.2088 62.8762 82.2091 60.8758C84.2095 58.8754 85.3333 56.1623 85.3333 53.3333C85.3333 50.5044 84.2095 47.7913 82.2091 45.7909C80.2088 43.7905 77.4956 42.6667 74.6667 42.6667H53.3333C50.5044 42.6667 47.7913 43.7905 45.7909 45.7909C43.7905 47.7913 42.6667 50.5044 42.6667 53.3333V202.667C42.6667 205.496 43.7905 208.209 45.7909 210.209C47.7913 212.21 50.5044 213.333 53.3333 213.333H74.6667C77.4956 213.333 80.2088 212.21 82.2091 210.209C84.2095 208.209 85.3333 205.496 85.3333 202.667C85.3333 199.838 84.2095 197.125 82.2091 195.124C80.2088 193.124 77.4956 192 74.6667 192H64V64H74.6667Z" fill="white"/>
<path d="M222.08 121.813L192 79.1467C190.369 76.8471 187.893 75.2869 185.115 74.8071C182.337 74.3274 179.481 74.9672 177.173 76.5867C176.02 77.3951 175.038 78.4239 174.284 79.6139C173.53 80.8039 173.019 82.1314 172.781 83.5198C172.543 84.9082 172.583 86.3301 172.897 87.7032C173.211 89.0763 173.795 90.3735 174.613 91.52L192.96 117.333H106.667C103.838 117.333 101.125 118.457 99.1242 120.458C97.1238 122.458 96 125.171 96 128C96 130.829 97.1238 133.542 99.1242 135.542C101.125 137.543 103.838 138.667 106.667 138.667H192L172.8 164.267C171.96 165.387 171.348 166.662 171 168.019C170.653 169.376 170.576 170.788 170.774 172.175C170.972 173.562 171.441 174.896 172.155 176.101C172.869 177.307 173.813 178.36 174.933 179.2C176.78 180.585 179.025 181.333 181.333 181.333C182.989 181.333 184.622 180.948 186.104 180.207C187.585 179.467 188.873 178.391 189.867 177.067L221.867 134.4C223.233 132.596 223.99 130.404 224.028 128.141C224.066 125.879 223.384 123.663 222.08 121.813Z" fill="white"/>
</svg>
