<svg width="249" height="260" viewBox="0 0 249 260" fill="none" xmlns="http://www.w3.org/2000/svg">
<path d="M124.5 119.167C132.708 119.167 140.732 116.625 147.556 111.864C154.381 107.102 159.7 100.334 162.841 92.4163C165.982 84.4982 166.804 75.7853 165.203 67.3794C163.601 58.9736 159.649 51.2523 153.845 45.192C148.041 39.1318 140.646 35.0047 132.596 33.3326C124.546 31.6606 116.202 32.5188 108.619 35.7986C101.035 39.0784 94.5541 44.6325 89.994 51.7586C85.4339 58.8848 83 67.2628 83 75.8333C83 87.3261 87.3723 98.3481 95.1551 106.475C102.938 114.601 113.494 119.167 124.5 119.167ZM124.5 54.1667C128.604 54.1667 132.616 55.4374 136.028 57.8182C139.44 60.1989 142.1 63.5828 143.67 67.5419C145.241 71.5009 145.652 75.8574 144.851 80.0603C144.051 84.2632 142.074 88.1238 139.172 91.154C136.271 94.1841 132.573 96.2477 128.548 97.0837C124.523 97.9197 120.351 97.4906 116.559 95.8507C112.768 94.2108 109.527 91.4338 107.247 87.8707C104.967 84.3076 103.75 80.1186 103.75 75.8333C103.75 70.087 105.936 64.576 109.828 60.5127C113.719 56.4494 118.997 54.1667 124.5 54.1667Z" fill="white"/>
<path d="M124.5 140.833C105.239 140.833 86.7662 148.823 73.1464 163.044C59.5265 177.266 51.875 196.554 51.875 216.667C51.875 219.54 52.9681 222.295 54.9138 224.327C56.8595 226.359 59.4984 227.5 62.25 227.5C65.0016 227.5 67.6405 226.359 69.5862 224.327C71.5319 222.295 72.625 219.54 72.625 216.667C72.625 202.301 78.0904 188.523 87.8188 178.365C97.5473 168.207 110.742 162.5 124.5 162.5C138.258 162.5 151.453 168.207 161.181 178.365C170.91 188.523 176.375 202.301 176.375 216.667C176.375 219.54 177.468 222.295 179.414 224.327C181.359 226.359 183.998 227.5 186.75 227.5C189.502 227.5 192.141 226.359 194.086 224.327C196.032 222.295 197.125 219.54 197.125 216.667C197.125 196.554 189.473 177.266 175.854 163.044C162.234 148.823 143.761 140.833 124.5 140.833Z" fill="white"/>
</svg>
