<svg width="214" height="182" viewBox="0 0 214 182" fill="none" xmlns="http://www.w3.org/2000/svg">
<path d="M107 182C105.596 182.008 104.205 181.739 102.905 181.208C101.605 180.677 100.423 179.895 99.4267 178.907L16.5467 95.92C6.15051 85.4152 0.319061 71.2327 0.319061 56.4533C0.319061 41.6739 6.15051 27.4914 16.5467 16.9867C27.0241 6.53878 41.2169 0.671692 56.0133 0.671692C70.8098 0.671692 85.0025 6.53878 95.48 16.9867L107 28.5067L118.52 16.9867C128.997 6.53878 143.19 0.671692 157.987 0.671692C172.783 0.671692 186.976 6.53878 197.453 16.9867C207.849 27.4914 213.681 41.6739 213.681 56.4533C213.681 71.2327 207.849 85.4152 197.453 95.92L114.573 178.907C113.577 179.895 112.395 180.677 111.095 181.208C109.795 181.739 108.404 182.008 107 182ZM56.0133 22C51.4979 21.9796 47.0232 22.8553 42.8486 24.5764C38.674 26.2975 34.8824 28.8298 31.6933 32.0267C25.2513 38.5026 21.635 47.2656 21.635 56.4C21.635 65.5344 25.2513 74.2974 31.6933 80.7733L107 156.187L182.307 80.7733C188.749 74.2974 192.365 65.5344 192.365 56.4C192.365 47.2656 188.749 38.5026 182.307 32.0267C175.732 25.8156 167.031 22.3552 157.987 22.3552C148.942 22.3552 140.241 25.8156 133.667 32.0267L114.573 51.2267C113.582 52.2264 112.402 53.02 111.102 53.5615C109.802 54.103 108.408 54.3818 107 54.3818C105.592 54.3818 104.198 54.103 102.898 53.5615C101.598 53.02 100.418 52.2264 99.4267 51.2267L80.3333 32.0267C77.1443 28.8298 73.3527 26.2975 69.178 24.5764C65.0034 22.8553 60.5288 21.9796 56.0133 22Z" fill="white"/>
</svg>
