<svg width="193" height="171" viewBox="0 0 193 171" fill="none" xmlns="http://www.w3.org/2000/svg">
<path d="M185.856 20.5812L143.356 1.45625H134.644L96.5 18.5625L58.3562 1.45625H57.825L56.55 0.5H50.175L7.675 19.625C5.55519 20.4373 3.75126 21.9071 2.52756 23.8191C1.30385 25.7312 0.724712 27.9849 0.875002 30.25V159.875C0.877964 161.653 1.32695 163.401 2.18084 164.961C3.03473 166.52 4.26622 167.84 5.7625 168.8C7.47263 169.905 9.46413 170.495 11.5 170.5C13.0034 170.493 14.4882 170.167 15.8563 169.544L54 152.437L92.1438 169.544H92.675C93.8724 170.104 95.1782 170.394 96.5 170.394C97.8218 170.394 99.1276 170.104 100.325 169.544H100.856L139 152.437L177.144 169.544C178.512 170.167 179.997 170.493 181.5 170.5C183.536 170.495 185.527 169.905 187.238 168.8C188.734 167.84 189.965 166.52 190.819 164.961C191.673 163.401 192.122 161.653 192.125 159.875V30.25C192.121 28.2062 191.527 26.2069 190.415 24.492C189.303 22.7771 187.72 21.4192 185.856 20.5812ZM22.125 37.05L43.375 27.5938V133.844L22.125 143.3V37.05ZM64.625 27.5938L85.875 37.05V143.3L64.625 133.844V27.5938ZM107.125 37.05L128.375 27.5938V133.844L107.125 143.3V37.05ZM170.875 143.3L149.625 133.844V27.5938L170.875 37.05V143.3Z" fill="white"/>
</svg>
