<svg width="256" height="256" viewBox="0 0 256 256" fill="none" xmlns="http://www.w3.org/2000/svg">
<path d="M138.027 234.667H117.867C113.114 234.667 108.556 232.779 105.195 229.418C101.835 226.057 99.9467 221.499 99.9467 216.747V205.12C99.8889 204.435 99.6376 203.781 99.2222 203.233C98.8067 202.685 98.2441 202.267 97.6 202.027C96.9473 201.609 96.1885 201.386 95.4133 201.386C94.6382 201.386 93.8793 201.609 93.2267 202.027L85.3333 210.56C83.6776 212.227 81.7084 213.551 79.539 214.454C77.3697 215.357 75.0431 215.822 72.6933 215.822C70.3436 215.822 68.017 215.357 65.8476 214.454C63.6783 213.551 61.7091 212.227 60.0533 210.56L45.44 196.267C43.7485 194.614 42.4051 192.64 41.4891 190.46C40.5731 188.28 40.103 185.938 40.1067 183.573C40.1135 178.736 42.0303 174.098 45.44 170.667L53.3333 162.773C53.7144 162.186 53.9172 161.5 53.9172 160.8C53.9172 160.1 53.7144 159.414 53.3333 158.827C52.6933 157.227 51.6267 156.053 50.1333 156.053H39.2533C34.4909 156.025 29.9331 154.114 26.5755 150.736C23.2178 147.358 21.3333 142.789 21.3333 138.027V117.867C21.3333 113.114 23.2213 108.556 26.582 105.195C29.9426 101.835 34.5007 99.9467 39.2533 99.9467H50.88C51.565 99.8889 52.2195 99.6376 52.7672 99.2222C53.3148 98.8067 53.7332 98.2441 53.9733 97.6C54.3915 96.9473 54.6138 96.1885 54.6138 95.4133C54.6138 94.6382 54.3915 93.8793 53.9733 93.2267L45.44 85.3333C43.7726 83.6776 42.4493 81.7084 41.5463 79.539C40.6433 77.3697 40.1784 75.0431 40.1784 72.6933C40.1784 70.3436 40.6433 68.017 41.5463 65.8476C42.4493 63.6783 43.7726 61.7091 45.44 60.0533L59.7333 45.44C61.3696 43.7565 63.3261 42.4174 65.4877 41.5014C67.6493 40.5855 69.9724 40.1113 72.32 40.1067C74.7333 40.0961 77.125 40.5617 79.358 41.4769C81.5911 42.3921 83.6216 43.7388 85.3333 45.44L93.2267 53.3333C93.8143 53.7144 94.4997 53.9172 95.2 53.9172C95.9004 53.9172 96.5857 53.7144 97.1733 53.3333C98.7733 52.6933 99.9467 51.6267 99.9467 50.1333V39.2533C99.9749 34.4909 101.887 29.9331 105.264 26.5755C108.642 23.2178 113.211 21.3333 117.973 21.3333H138.667C143.419 21.3333 147.977 23.2213 151.338 26.582C154.699 29.9426 156.587 34.5007 156.587 39.2533V50.88C156.644 51.565 156.896 52.2195 157.311 52.7672C157.727 53.3148 158.289 53.7332 158.933 53.9733C159.586 54.3915 160.345 54.6138 161.12 54.6138C161.895 54.6138 162.654 54.3915 163.307 53.9733L170.667 45.44C172.322 43.7726 174.292 42.4493 176.461 41.5463C178.63 40.6433 180.957 40.1784 183.307 40.1784C185.656 40.1784 187.983 40.6433 190.152 41.5463C192.322 42.4493 194.291 43.7726 195.947 45.44L210.56 59.7333C212.247 61.3894 213.587 63.3646 214.503 65.5439C215.418 67.7232 215.891 70.0629 215.893 72.4267C215.945 74.8298 215.497 77.2175 214.579 79.439C213.662 81.6605 212.293 83.6675 210.56 85.3333L202.667 93.2267C202.286 93.8143 202.083 94.4997 202.083 95.2C202.083 95.9004 202.286 96.5857 202.667 97.1733C203.307 98.7733 204.373 99.9467 205.867 99.9467H217.493C222.125 100.166 226.494 102.162 229.692 105.519C232.89 108.876 234.672 113.337 234.667 117.973V138.667C234.667 143.419 232.779 147.977 229.418 151.338C226.057 154.699 221.499 156.587 216.747 156.587H205.12C204.435 156.644 203.781 156.896 203.233 157.311C202.685 157.727 202.267 158.289 202.027 158.933C201.646 159.521 201.443 160.206 201.443 160.907C201.443 161.607 201.646 162.292 202.027 162.88L210.24 171.093C211.907 172.749 213.231 174.718 214.134 176.888C215.037 179.057 215.502 181.384 215.502 183.733C215.502 186.083 215.037 188.41 214.134 190.579C213.231 192.748 211.907 194.718 210.24 196.373L196.267 210.56C194.63 212.244 192.674 213.583 190.512 214.499C188.351 215.415 186.028 215.889 183.68 215.893C178.917 215.831 174.365 213.918 170.987 210.56L162.773 202.667C162.186 202.286 161.5 202.083 160.8 202.083C160.1 202.083 159.414 202.286 158.827 202.667C157.227 203.307 156.053 204.373 156.053 205.867V217.493C155.834 222.125 153.838 226.494 150.481 229.692C147.124 232.89 142.663 234.672 138.027 234.667ZM121.28 213.333H134.72V205.12C134.765 200.201 136.27 195.406 139.042 191.343C141.814 187.279 145.73 184.13 150.293 182.293C154.875 180.29 159.95 179.698 164.871 180.591C169.791 181.483 174.334 183.822 177.92 187.307L183.68 193.067L193.067 183.68L187.307 177.813C183.843 174.281 181.508 169.8 180.596 164.938C179.685 160.076 180.238 155.053 182.187 150.507C184.04 145.963 187.196 142.07 191.258 139.318C195.321 136.565 200.107 135.077 205.013 135.04H213.333V121.28H205.12C200.201 121.235 195.406 119.73 191.343 116.958C187.279 114.186 184.13 110.27 182.293 105.707C180.29 101.125 179.698 96.0498 180.591 91.1295C181.483 86.2091 183.822 81.6662 187.307 78.08L193.067 72.32L183.68 62.9333L177.813 68.6933C174.226 71.9698 169.778 74.1531 164.992 74.9862C160.206 75.8193 155.281 75.2675 150.798 73.3958C146.315 71.5242 142.46 68.4105 139.687 64.4215C136.914 60.4325 135.339 55.7343 135.147 50.88V42.6667H121.28V50.88C121.235 55.7989 119.73 60.5937 116.958 64.6572C114.186 68.7207 110.27 71.8701 105.707 73.7067C101.125 75.7096 96.0498 76.3024 91.1295 75.4095C86.2091 74.5166 81.6662 72.1785 78.08 68.6933L72.32 62.9333L62.9333 72.32L68.6933 78.1867C71.9698 81.7736 74.1531 86.222 74.9862 91.0082C75.8193 95.7943 75.2675 100.719 73.3958 105.202C71.5242 109.685 68.4105 113.54 64.4215 116.313C60.4325 119.086 55.7343 120.661 50.88 120.853H42.6667V134.293H50.88C55.7989 134.339 60.5937 135.843 64.6572 138.615C68.7207 141.387 71.8701 145.303 73.7067 149.867C75.7096 154.449 76.3024 159.524 75.4095 164.444C74.5166 169.364 72.1785 173.907 68.6933 177.493L62.9333 183.253L72.32 192.64L78.1867 186.88C81.7736 183.604 86.222 181.42 91.0082 180.587C95.7943 179.754 100.719 180.306 105.202 182.178C109.685 184.049 113.54 187.163 116.313 191.152C119.086 195.141 120.661 199.839 120.853 204.693L121.28 213.333Z" fill="white"/>
<path d="M128 165.333C120.616 165.333 113.398 163.144 107.259 159.042C101.119 154.939 96.3342 149.109 93.5085 142.287C90.6828 135.465 89.9435 127.959 91.384 120.717C92.8245 113.475 96.3802 106.823 101.601 101.601C106.823 96.3802 113.475 92.8245 120.717 91.384C127.959 89.9435 135.465 90.6828 142.287 93.5085C149.109 96.3342 154.939 101.119 159.042 107.259C163.144 113.398 165.333 120.616 165.333 128C165.333 137.901 161.4 147.397 154.399 154.399C147.397 161.4 137.901 165.333 128 165.333ZM128 112C124.836 112 121.742 112.938 119.111 114.696C116.48 116.455 114.429 118.953 113.218 121.877C112.007 124.801 111.69 128.018 112.307 131.121C112.925 134.225 114.449 137.076 116.686 139.314C118.924 141.551 121.775 143.075 124.879 143.693C127.982 144.31 131.199 143.993 134.123 142.782C137.047 141.571 139.545 139.52 141.304 136.889C143.062 134.258 144 131.165 144 128C144 123.757 142.314 119.687 139.314 116.686C136.313 113.686 132.243 112 128 112Z" fill="white"/>
</svg>
