<svg width="256" height="256" viewBox="0 0 256 256" fill="none" xmlns="http://www.w3.org/2000/svg">
<path d="M96 117.333C104.439 117.333 112.688 114.831 119.704 110.143C126.721 105.454 132.19 98.7908 135.419 90.9945C138.648 83.1982 139.493 74.6193 137.847 66.3428C136.201 58.0663 132.137 50.4638 126.17 44.4968C120.203 38.5297 112.6 34.4661 104.324 32.8198C96.0473 31.1735 87.4685 32.0185 79.6722 35.2478C71.8759 38.4771 65.2122 43.9458 60.524 50.9623C55.8357 57.9788 53.3333 66.228 53.3333 74.6667C53.3333 85.9826 57.8286 96.835 65.8301 104.837C73.8317 112.838 84.6841 117.333 96 117.333ZM96 53.3333C100.219 53.3333 104.344 54.5845 107.852 56.9286C111.36 59.2728 114.095 62.6046 115.709 66.5027C117.324 70.4009 117.747 74.6903 116.923 78.8286C116.1 82.9668 114.068 86.7681 111.085 89.7516C108.101 92.7351 104.3 94.7669 100.162 95.5901C96.0237 96.4132 91.7342 95.9908 87.8361 94.3761C83.9379 92.7614 80.6061 90.0271 78.262 86.5188C75.9178 83.0106 74.6667 78.886 74.6667 74.6667C74.6667 69.0087 76.9143 63.5825 80.915 59.5817C84.9158 55.5809 90.342 53.3333 96 53.3333Z" fill="white"/>
<path d="M181.333 138.667C187.662 138.667 193.849 136.79 199.112 133.274C204.374 129.757 208.475 124.76 210.897 118.913C213.319 113.065 213.953 106.631 212.718 100.424C211.484 94.2164 208.436 88.5145 203.961 84.0393C199.485 79.564 193.784 76.5163 187.576 75.2815C181.369 74.0468 174.935 74.6805 169.087 77.1025C163.24 79.5245 158.242 83.626 154.726 88.8884C151.21 94.1508 149.333 100.338 149.333 106.667C149.333 115.154 152.705 123.293 158.706 129.294C164.707 135.295 172.846 138.667 181.333 138.667ZM181.333 96C183.443 96 185.505 96.6256 187.259 97.7977C189.014 98.9697 190.381 100.636 191.188 102.585C191.995 104.534 192.207 106.678 191.795 108.748C191.383 110.817 190.368 112.717 188.876 114.209C187.384 115.701 185.483 116.717 183.414 117.128C181.345 117.54 179.2 117.329 177.251 116.521C175.302 115.714 173.636 114.347 172.464 112.593C171.292 110.839 170.667 108.776 170.667 106.667C170.667 103.838 171.79 101.125 173.791 99.1242C175.791 97.1238 178.504 96 181.333 96Z" fill="white"/>
<path d="M181.333 149.333C169.513 149.346 158.032 153.286 148.693 160.533C138.245 150.126 124.95 143.046 110.483 140.186C96.017 137.325 81.0274 138.813 67.4051 144.46C53.7828 150.108 42.1377 159.662 33.9386 171.919C25.7394 184.176 21.3533 198.587 21.3333 213.333C21.3333 216.162 22.4571 218.875 24.4575 220.876C26.4579 222.876 29.171 224 32 224C34.829 224 37.5421 222.876 39.5425 220.876C41.5429 218.875 42.6667 216.162 42.6667 213.333C42.6667 199.188 48.2857 185.623 58.2876 175.621C68.2896 165.619 81.8551 160 96 160C110.145 160 123.71 165.619 133.712 175.621C143.714 185.623 149.333 199.188 149.333 213.333C149.333 216.162 150.457 218.875 152.458 220.876C154.458 222.876 157.171 224 160 224C162.829 224 165.542 222.876 167.542 220.876C169.543 218.875 170.667 216.162 170.667 213.333C170.692 200.837 167.535 188.539 161.493 177.6C166.207 173.875 171.874 171.552 177.847 170.898C183.819 170.243 189.855 171.283 195.264 173.898C200.672 176.514 205.236 180.599 208.431 185.687C211.627 190.774 213.326 196.659 213.333 202.667C213.333 205.496 214.457 208.209 216.458 210.209C218.458 212.21 221.171 213.333 224 213.333C226.829 213.333 229.542 212.21 231.542 210.209C233.543 208.209 234.667 205.496 234.667 202.667C234.667 188.522 229.048 174.956 219.046 164.954C209.044 154.952 195.478 149.333 181.333 149.333Z" fill="white"/>
</svg>
